<mxfile host="app.diagrams.net" modified="2025-10-09T19:19:32.947213Z" agent="python" version="22.0.0"><diagram id="1760037572947228" name="Use Case — Pomodoro while Studying"><mxGraphModel dx="1200" dy="800" grid="1" gridSize="10" guides="1" tooltips="1" connect="1" arrows="1" fold="1" page="1" pageScale="1" pageWidth="2200" pageHeight="1400" math="0" shadow="0"><root><mxCell id="0" /><mxCell id="1" parent="0" /><mxCell id="sys3" value="AI Study Buddy" style="swimlane;rounded=1;horizontal=0;align=center;verticalAlign=top;startSize=28;collapsible=0;" vertex="1" parent="1"><mxGeometry x="360" y="80" width="1400" height="1000" as="geometry" /></mxCell><mxCell id="a_student3" value="Student" style="shape=umlActor;verticalLabelPosition=bottom;verticalAlign=top;" vertex="1" parent="1"><mxGeometry x="160" y="300" width="60" height="120" as="geometry" /></mxCell><mxCell id="a_notif3" value="Notification Service" style="shape=umlActor;verticalLabelPosition=bottom;verticalAlign=top;" vertex="1" parent="1"><mxGeometry x="160" y="700" width="60" height="120" as="geometry" /></mxCell><mxCell id="uc_start" value="Start Pomodoro" style="ellipse;whiteSpace=wrap;html=1;" vertex="1" parent="sys3"><mxGeometry x="460" y="240" width="220" height="80" as="geometry" /></mxCell><mxCell id="uc_adjust" value="Adjust Timer (25/5/long break)" style="ellipse;whiteSpace=wrap;html=1;" vertex="1" parent="sys3"><mxGeometry x="820" y="240" width="320" height="80" as="geometry" /></mxCell><mxCell id="uc_focus" value="Focus Session Tracking" style="ellipse;whiteSpace=wrap;html=1;" vertex="1" parent="sys3"><mxGeometry x="460" y="380" width="220" height="80" as="geometry" /></mxCell><mxCell id="uc_break" value="Break Session Tracking" style="ellipse;whiteSpace=wrap;html=1;" vertex="1" parent="sys3"><mxGeometry x="820" y="380" width="220" height="80" as="geometry" /></mxCell><mxCell id="uc_notify" value="Send Alerts (start/end)" style="ellipse;whiteSpace=wrap;html=1;" vertex="1" parent="sys3"><mxGeometry x="1120" y="380" width="220" height="80" as="geometry" /></mxCell><mxCell id="uc_stats" value="Log &amp; View Stats" style="ellipse;whiteSpace=wrap;html=1;" vertex="1" parent="sys3"><mxGeometry x="460" y="520" width="220" height="80" as="geometry" /></mxCell><mxCell id="e31" value="" style="endArrow=classic;" edge="1" parent="1" source="a_student3" target="uc_start"><mxGeometry relative="1" as="geometry" /></mxCell><mxCell id="e32" value="" style="endArrow=classic;" edge="1" parent="1" source="a_student3" target="uc_adjust"><mxGeometry relative="1" as="geometry" /></mxCell><mxCell id="e33" value="" style="endArrow=block;dashed=1;" edge="1" parent="1" source="uc_start" target="uc_focus"><mxGeometry relative="1" as="geometry" /></mxCell><mxCell id="e34" value="" style="endArrow=block;dashed=1;" edge="1" parent="1" source="uc_focus" target="uc_break"><mxGeometry relative="1" as="geometry" /></mxCell><mxCell id="e35" value="" style="endArrow=block;dashed=1;" edge="1" parent="1" source="uc_focus" target="uc_notify"><mxGeometry relative="1" as="geometry" /></mxCell><mxCell id="e36" value="" style="endArrow=block;dashed=1;" edge="1" parent="1" source="uc_break" target="uc_notify"><mxGeometry relative="1" as="geometry" /></mxCell><mxCell id="e37" value="" style="endArrow=block;dashed=1;" edge="1" parent="1" source="uc_focus" target="uc_stats"><mxGeometry relative="1" as="geometry" /></mxCell><mxCell id="e38" value="" style="endArrow=classic;" edge="1" parent="1" source="a_notif3" target="uc_notify"><mxGeometry relative="1" as="geometry" /></mxCell></root></mxGraphModel></diagram></mxfile>